<?xml version="1.0" encoding="UTF-8" ?>
<!DOCTYPE svg PUBLIC "-//W3C//DTD SVG 1.1//EN" "http://www.w3.org/Graphics/SVG/1.1/DTD/svg11.dtd">
<svg width="24pt" height="25pt" viewBox="0 0 24 25" version="1.1" xmlns="http://www.w3.org/2000/svg">
<g id="#ffffffff">
<path fill="#ffffff" opacity="1.00" d=" M 10.72 0.00 L 13.11 0.00 C 15.15 0.48 17.65 1.57 17.88 3.96 C 18.15 6.98 17.98 10.01 18.01 13.04 C 18.42 13.59 19.23 14.68 19.64 15.23 C 18.64 16.20 17.64 17.17 16.64 18.14 C 16.08 17.57 14.98 16.44 14.42 15.88 C 12.38 17.47 9.75 18.88 7.11 17.82 C 3.67 16.83 2.97 11.83 5.60 9.62 C 7.95 7.48 11.30 7.37 14.26 6.85 C 13.77 5.74 14.04 3.78 12.52 3.46 C 10.60 2.68 9.44 4.74 8.41 5.94 C 7.08 5.80 5.75 5.66 4.43 5.49 C 5.29 2.56 7.65 0.39 10.72 0.00 M 9.05 12.10 C 8.39 14.29 11.71 15.60 13.10 14.10 C 14.36 12.85 13.83 10.92 14.06 9.35 C 12.29 9.82 9.49 9.84 9.05 12.10 Z" />
<path fill="#ffffff" opacity="1.00" d=" M 0.00 17.95 C 3.39 19.87 6.96 21.86 10.96 21.93 C 14.60 22.20 18.00 20.69 21.40 19.67 C 15.88 26.28 5.20 24.70 0.00 18.48 L 0.00 17.95 Z" />
<path fill="#ffffff" opacity="1.00" d=" M 19.25 18.27 C 20.47 17.58 21.71 17.53 22.99 18.12 C 23.64 19.28 23.52 20.40 22.63 21.48 C 22.46 21.08 22.14 20.29 21.98 19.90 C 21.81 18.35 19.62 19.37 19.25 18.27 Z" />
</g>
</svg>
