<?xml version="1.0" encoding="UTF-8" ?>
<!DOCTYPE svg PUBLIC "-//W3C//DTD SVG 1.1//EN" "http://www.w3.org/Graphics/SVG/1.1/DTD/svg11.dtd">
<svg width="24pt" height="17pt" viewBox="0 0 24 17" version="1.1" xmlns="http://www.w3.org/2000/svg">
<g id="#ffffffff">
<path fill="#ffffff" opacity="1.00" d=" M 0.00 0.00 L 7.90 0.00 C 11.68 -0.25 13.15 4.95 10.07 6.88 C 13.18 8.18 13.32 13.12 10.13 14.39 C 6.90 15.57 3.36 14.82 0.00 15.03 L 0.00 0.00 M 3.02 2.54 C 3.02 3.40 3.00 5.13 3.00 6.00 C 4.86 5.77 8.72 6.97 8.60 3.95 C 7.91 1.56 4.82 2.87 3.02 2.54 M 3.02 8.47 C 3.00 9.85 3.00 11.22 3.00 12.59 C 4.97 12.29 8.44 13.57 9.14 10.92 C 9.27 7.50 5.18 8.66 3.02 8.47 Z" />
<path fill="#ffffff" opacity="1.00" d=" M 16.00 1.01 C 17.99 0.99 19.99 0.98 21.99 1.04 C 21.97 1.54 21.94 2.53 21.92 3.02 C 19.95 3.03 17.98 3.03 16.00 3.02 C 16.00 2.52 16.00 1.51 16.00 1.01 Z" />
<path fill="#ffffff" opacity="1.00" d=" M 16.36 4.42 C 19.48 2.87 23.60 4.83 24.00 8.40 L 24.00 10.03 C 21.35 10.03 18.71 9.98 16.06 10.09 C 16.18 13.25 20.12 13.99 21.65 11.33 C 22.24 11.38 23.41 11.49 24.00 11.54 L 24.00 11.78 C 22.67 14.68 19.13 16.27 16.20 14.74 C 12.11 12.94 12.28 6.15 16.36 4.42 M 16.03 7.91 C 17.72 8.02 19.41 8.02 21.11 7.98 C 20.69 5.42 16.72 5.64 16.03 7.91 Z" />
</g>
</svg>
