<?xml version="1.0" encoding="UTF-8" ?>
<!DOCTYPE svg PUBLIC "-//W3C//DTD SVG 1.1//EN" "http://www.w3.org/Graphics/SVG/1.1/DTD/svg11.dtd">
<svg width="24pt" height="25pt" viewBox="0 0 24 25" version="1.1" xmlns="http://www.w3.org/2000/svg">
<g id="#d1d1d1d3">
<path fill="#d1d1d1" opacity="0.83" d=" M 7.33 1.39 C 13.54 -1.57 21.75 2.37 23.23 9.10 C 24.97 15.04 21.00 21.83 14.97 23.21 C 9.00 24.98 2.13 21.00 0.77 14.92 C -0.76 9.59 2.23 3.51 7.33 1.39 M 9.97 2.51 C 11.05 4.42 12.21 6.29 13.36 8.17 C 15.18 7.23 16.85 6.04 18.25 4.54 C 15.77 2.97 12.90 2.27 9.97 2.51 M 2.71 9.81 C 5.56 9.67 8.40 9.35 11.21 8.87 C 10.22 6.87 9.05 4.95 7.47 3.36 C 5.37 5.08 3.38 7.08 2.71 9.81 M 14.34 10.59 C 16.34 12.14 19.30 10.94 21.67 11.48 C 21.18 9.65 20.56 7.87 19.75 6.16 C 18.26 7.97 15.60 8.74 14.34 10.59 M 2.41 11.94 C 2.65 14.16 3.34 16.28 4.49 18.19 C 6.71 15.02 10.19 13.34 13.10 10.98 C 9.52 11.14 6.00 11.82 2.41 11.94 M 15.98 13.28 C 16.46 15.45 17.01 17.61 17.43 19.80 C 19.39 18.24 20.99 16.19 21.32 13.64 C 19.54 13.50 17.76 13.37 15.98 13.28 M 6.18 19.69 C 9.00 21.47 12.41 21.94 15.62 20.95 C 15.11 18.54 14.48 16.16 13.71 13.82 C 10.51 14.73 8.15 17.14 6.18 19.69 Z" />
</g>
</svg>
