<?xml version="1.0" encoding="UTF-8" ?>
<!DOCTYPE svg PUBLIC "-//W3C//DTD SVG 1.1//EN" "http://www.w3.org/Graphics/SVG/1.1/DTD/svg11.dtd">
<svg width="12pt" height="25pt" viewBox="0 0 12 25" version="1.1" xmlns="http://www.w3.org/2000/svg">
<g id="#ffffffff">
<path fill="#ffffff" opacity="1.00" d=" M 7.63 0.00 L 12.00 0.00 L 12.00 3.86 C 10.74 3.97 9.47 4.09 8.21 4.21 C 8.11 5.47 8.02 6.73 7.93 7.99 C 8.89 8.00 10.81 8.01 11.76 8.01 C 11.52 9.32 11.28 10.62 11.04 11.93 C 10.29 11.93 8.78 11.94 8.02 11.94 C 7.99 15.97 8.00 20.00 8.00 24.03 C 6.33 24.02 4.67 24.02 3.00 24.03 C 3.00 20.00 3.01 15.97 2.98 11.94 C 2.23 11.94 0.74 11.93 0.00 11.93 L 0.00 8.00 C 0.73 8.00 2.20 8.00 2.93 8.00 C 2.59 4.62 3.54 0.35 7.63 0.00 Z" />
</g>
</svg>
