<?xml version="1.0" encoding="UTF-8" ?>
<!DOCTYPE svg PUBLIC "-//W3C//DTD SVG 1.1//EN" "http://www.w3.org/Graphics/SVG/1.1/DTD/svg11.dtd">
<svg width="25pt" height="28pt" viewBox="0 0 25 28" version="1.1" xmlns="http://www.w3.org/2000/svg">
<g id="#ffffffff">
<path fill="#ffffff" opacity="1.00" d=" M 3.17 0.00 L 4.69 0.00 C 4.58 0.19 4.34 0.56 4.22 0.75 C 6.06 1.30 7.84 2.62 9.86 2.26 C 13.76 1.42 18.54 3.87 21.38 0.00 L 22.71 0.00 C 22.55 1.81 22.90 3.63 22.92 5.45 C 24.84 8.66 25.19 12.94 23.00 16.11 C 21.50 18.27 18.83 18.98 16.38 19.33 C 17.76 21.41 17.65 23.93 17.64 26.32 C 14.57 26.58 11.49 26.62 8.42 26.35 C 8.41 25.67 8.38 24.30 8.36 23.62 C 7.15 23.61 5.96 23.49 4.78 23.27 C 2.68 22.31 2.51 18.86 0.00 18.59 L 0.00 18.33 C 0.50 18.23 1.51 18.03 2.01 17.93 C 3.00 19.01 4.07 20.01 4.97 21.18 C 6.79 21.59 8.36 20.85 9.69 19.65 C 6.82 18.83 3.29 17.96 2.17 14.79 C -0.34 9.80 4.21 5.13 3.17 0.00 Z" />
</g>
</svg>
