<?xml version="1.0" encoding="UTF-8" ?>
<!DOCTYPE svg PUBLIC "-//W3C//DTD SVG 1.1//EN" "http://www.w3.org/Graphics/SVG/1.1/DTD/svg11.dtd">
<svg width="25pt" height="22pt" viewBox="0 0 25 22" version="1.1" xmlns="http://www.w3.org/2000/svg">
<g id="#fefefefe">
<path fill="#fefefe" opacity="1.00" d=" M 6.69 0.00 L 15.87 0.00 C 14.93 0.44 14.00 0.89 13.07 1.34 C 14.47 3.57 14.36 6.44 12.25 8.17 C 8.77 11.05 15.34 12.75 14.97 15.98 C 15.43 18.76 12.69 20.73 10.19 20.87 C 7.04 21.15 2.88 20.97 1.02 17.96 C 0.40 15.02 3.66 13.80 5.65 12.66 C 6.29 13.03 6.92 13.41 7.56 13.78 C 5.41 13.74 3.44 15.56 4.07 17.75 C 5.73 20.63 10.07 20.34 12.62 18.90 C 14.31 16.26 11.78 13.69 9.21 13.28 C 8.92 11.94 8.67 10.58 8.38 9.23 C 9.83 8.49 11.89 8.01 11.77 5.95 C 12.25 2.77 9.54 0.62 6.72 0.01 C 6.31 1.58 4.90 3.18 5.58 4.87 C 5.72 6.28 7.21 7.38 6.92 8.83 C 6.67 8.93 6.17 9.13 5.92 9.23 C 1.44 7.49 2.68 1.45 6.69 0.00 Z" />
<path fill="#fefefe" opacity="1.00" d=" M 20.17 0.93 C 20.63 0.93 21.55 0.93 22.01 0.93 C 22.00 1.67 22.00 3.14 22.00 3.88 C 22.75 3.95 24.25 4.09 25.00 4.16 L 25.00 6.04 C 24.25 6.03 22.74 6.01 21.99 6.00 C 22.00 6.76 22.01 8.27 22.01 9.03 C 21.51 9.03 20.49 9.03 19.99 9.02 C 19.99 8.27 20.00 6.75 20.01 6.00 C 19.26 6.01 17.75 6.03 17.00 6.04 C 17.00 5.57 17.00 4.63 16.99 4.17 C 17.71 4.09 19.14 3.93 19.85 3.85 C 19.93 3.12 20.09 1.66 20.17 0.93 Z" />
</g>
</svg>
