<?xml version="1.0" encoding="UTF-8" ?>
<!DOCTYPE svg PUBLIC "-//W3C//DTD SVG 1.1//EN" "http://www.w3.org/Graphics/SVG/1.1/DTD/svg11.dtd">
<svg width="25pt" height="24pt" viewBox="0 0 25 24" version="1.1" xmlns="http://www.w3.org/2000/svg">
<g id="#ffffffff">
<path fill="#ffffff" opacity="1.00" d=" M 1.42 1.46 C 3.02 -0.06 5.97 0.75 6.47 2.93 C 6.85 5.22 3.90 6.72 2.07 5.62 C 0.45 4.93 0.02 2.61 1.42 1.46 Z" />
<path fill="#ffffff" opacity="1.00" d=" M 1.00 8.00 C 2.67 8.00 4.33 8.00 6.00 8.00 C 6.00 13.01 6.00 18.02 6.00 23.03 C 4.33 23.02 2.67 23.02 1.00 23.03 C 1.00 18.02 1.00 13.01 1.00 8.00 Z" />
<path fill="#ffffff" opacity="1.00" d=" M 9.00 7.95 C 10.74 8.40 13.99 6.87 14.26 9.60 C 17.64 5.41 24.91 7.94 25.00 13.32 L 25.00 23.03 C 23.33 23.03 21.66 23.02 19.98 23.02 C 19.96 19.83 20.28 16.59 19.72 13.42 C 18.97 11.08 15.18 10.68 14.33 13.15 C 13.71 16.40 14.04 19.74 14.02 23.03 C 12.34 23.02 10.67 23.02 9.00 23.03 C 9.00 18.00 9.00 12.97 9.00 7.95 Z" />
</g>
</svg>
