<?xml version="1.0" encoding="UTF-8" ?>
<!DOCTYPE svg PUBLIC "-//W3C//DTD SVG 1.1//EN" "http://www.w3.org/Graphics/SVG/1.1/DTD/svg11.dtd">
<svg width="24pt" height="25pt" viewBox="0 0 24 25" version="1.1" xmlns="http://www.w3.org/2000/svg">
<g id="#ffffffff">
<path fill="#ffffff" opacity="1.00" d=" M 10.53 0.00 L 13.28 0.00 C 18.79 0.59 23.31 5.21 24.00 10.68 L 24.00 13.11 C 23.38 20.39 15.84 25.40 8.84 23.76 C 9.49 21.91 10.08 20.03 10.63 18.15 C 14.66 20.81 19.66 17.41 20.00 12.95 C 21.38 8.17 16.88 3.46 12.10 4.02 C 7.45 3.91 2.96 8.32 4.10 13.09 C 4.29 14.76 5.80 15.67 7.01 16.57 C 6.95 13.90 5.49 10.81 7.37 8.44 C 9.50 5.19 15.62 5.09 16.99 9.07 C 17.57 11.73 17.06 15.25 14.57 16.79 C 13.54 17.67 10.83 16.65 11.62 15.04 C 11.90 13.34 12.37 11.67 12.54 9.94 C 12.07 7.44 8.57 8.94 8.86 10.93 C 8.93 15.08 7.70 19.06 7.04 23.12 C 3.37 21.06 0.56 17.57 0.00 13.31 L 0.00 10.94 C 0.50 5.41 5.05 0.75 10.53 0.00 Z" />
</g>
</svg>
