<?xml version="1.0" encoding="UTF-8" ?>
<!DOCTYPE svg PUBLIC "-//W3C//DTD SVG 1.1//EN" "http://www.w3.org/Graphics/SVG/1.1/DTD/svg11.dtd">
<svg width="24pt" height="25pt" viewBox="0 0 24 25" version="1.1" xmlns="http://www.w3.org/2000/svg">
<g id="#ffffffff">
<path fill="#ffffff" opacity="1.00" d=" M 5.03 0.00 L 6.87 0.00 C 7.98 0.49 9.08 1.02 10.18 1.53 C 15.16 1.15 20.59 3.93 21.89 9.00 C 22.28 11.76 22.68 14.55 24.00 17.05 L 24.00 18.40 C 23.69 21.74 20.43 24.56 17.03 23.84 C 12.50 22.58 6.87 23.52 3.71 19.25 C 0.32 15.91 1.63 10.88 0.00 6.82 L 0.00 5.24 C 0.49 2.63 2.49 0.65 5.03 0.00 M 10.09 6.18 C 7.93 6.37 5.98 8.67 7.10 10.81 C 8.62 13.15 11.84 12.85 14.11 14.01 C 16.22 16.83 10.36 18.26 9.41 15.63 C 9.06 14.53 6.91 13.05 6.57 15.02 C 6.86 18.72 11.53 19.40 14.40 18.48 C 16.94 17.97 18.35 14.52 16.40 12.60 C 14.36 10.98 11.45 11.26 9.34 9.76 C 9.11 7.32 13.11 7.08 14.03 8.97 C 14.50 10.79 17.50 10.22 16.58 8.37 C 15.54 5.94 12.35 5.75 10.09 6.18 Z" />
</g>
</svg>
