<?xml version="1.0" encoding="UTF-8" ?>
<!DOCTYPE svg PUBLIC "-//W3C//DTD SVG 1.1//EN" "http://www.w3.org/Graphics/SVG/1.1/DTD/svg11.dtd">
<svg width="14pt" height="25pt" viewBox="0 0 14 25" version="1.1" xmlns="http://www.w3.org/2000/svg">
<g id="#ffffffff">
<path fill="#ffffff" opacity="1.00" d=" M 4.85 0.00 L 8.00 0.00 C 8.01 1.98 8.00 3.96 8.00 5.93 C 9.66 5.94 11.33 5.93 13.00 5.93 C 13.00 7.30 13.00 8.66 13.00 10.03 C 11.34 10.02 9.67 10.02 8.01 10.02 C 7.99 12.69 7.83 15.38 8.19 18.03 C 9.03 20.53 12.18 20.33 14.00 19.07 L 14.00 22.85 C 10.55 24.52 5.36 24.60 3.48 20.65 C 2.55 17.17 3.12 13.50 3.00 9.94 C 2.25 9.94 0.75 9.93 0.00 9.93 L 0.00 6.50 C 2.62 5.15 4.28 2.89 4.85 0.00 Z" />
</g>
</svg>
