<?xml version="1.0" encoding="UTF-8" ?>
<!DOCTYPE svg PUBLIC "-//W3C//DTD SVG 1.1//EN" "http://www.w3.org/Graphics/SVG/1.1/DTD/svg11.dtd">
<svg width="24pt" height="21pt" viewBox="0 0 24 21" version="1.1" xmlns="http://www.w3.org/2000/svg">
<g id="#ffffffff">
<path fill="#ffffff" opacity="1.00" d=" M 1.19 1.25 C 4.14 4.01 7.66 6.18 11.75 6.69 C 12.03 4.64 12.22 2.15 14.28 1.02 C 16.46 -0.49 18.96 0.97 20.91 2.12 C 21.44 1.79 22.50 1.14 23.03 0.81 C 22.80 1.48 22.35 2.81 22.13 3.48 L 24.00 3.26 L 24.00 3.27 C 23.54 3.78 22.63 4.81 22.17 5.33 C 22.14 11.87 17.71 18.21 11.17 19.60 C 7.40 20.87 3.72 18.99 0.00 18.73 L 0.00 17.54 C 2.13 17.70 4.31 17.73 6.24 16.65 C 5.15 15.14 3.71 13.93 2.48 12.55 C 3.04 12.55 4.17 12.54 4.74 12.54 C 2.80 11.50 1.26 9.90 0.67 7.74 C 1.24 7.75 2.37 7.79 2.94 7.80 C 0.87 6.17 0.89 3.62 1.19 1.25 Z" />
</g>
</svg>
