<?xml version="1.0" encoding="UTF-8" ?>
<!DOCTYPE svg PUBLIC "-//W3C//DTD SVG 1.1//EN" "http://www.w3.org/Graphics/SVG/1.1/DTD/svg11.dtd">
<svg width="24pt" height="22pt" viewBox="0 0 24 22" version="1.1" xmlns="http://www.w3.org/2000/svg">
<g id="#ffffffff">
<path fill="#ffffff" opacity="1.00" d=" M 19.31 0.00 L 21.21 0.00 C 21.96 1.17 22.90 2.21 24.00 3.06 L 24.00 5.54 C 22.28 10.94 18.87 15.82 14.51 19.42 C 12.88 20.85 9.86 21.86 8.43 19.63 C 6.23 15.88 6.14 11.33 4.27 7.44 C 3.70 5.54 1.42 6.78 0.00 6.49 L 0.00 5.82 C 2.55 3.90 5.69 -0.36 9.22 1.61 C 11.62 5.24 10.61 10.18 13.00 13.92 C 14.70 12.28 16.32 10.40 16.88 8.04 C 18.03 5.58 15.30 5.48 13.64 5.40 C 14.88 3.03 16.46 0.53 19.31 0.00 Z" />
</g>
</svg>
