<?xml version="1.0" encoding="UTF-8" ?>
<!DOCTYPE svg PUBLIC "-//W3C//DTD SVG 1.1//EN" "http://www.w3.org/Graphics/SVG/1.1/DTD/svg11.dtd">
<svg width="24pt" height="14pt" viewBox="0 0 24 14" version="1.1" xmlns="http://www.w3.org/2000/svg">
<g id="#ffffffff">
<path fill="#ffffff" opacity="1.00" d=" M 0.00 0.00 L 9.01 0.00 C 9.00 0.50 9.00 1.51 8.99 2.02 C 8.27 2.02 6.81 2.04 6.08 2.04 C 7.40 3.70 8.71 5.36 10.03 7.01 C 11.32 5.89 12.61 4.77 13.93 3.68 C 12.69 3.18 11.46 2.67 10.27 2.08 C 13.38 1.83 16.53 1.82 19.62 2.27 C 16.16 3.32 13.52 5.77 11.01 8.24 C 11.00 9.36 11.00 10.49 10.99 11.61 C 12.27 12.00 13.53 12.43 14.78 12.91 C 11.52 13.12 8.26 13.03 5.00 13.02 L 5.00 12.15 C 5.74 12.08 7.23 11.93 7.97 11.86 C 7.98 10.59 7.98 9.32 7.98 8.06 C 5.60 5.55 3.53 2.40 0.00 1.45 L 0.00 0.00 Z" />
<path fill="#ffffff" opacity="1.00" d=" M 20.00 0.98 C 20.88 1.04 22.65 1.16 23.53 1.22 C 22.23 3.78 23.12 8.28 20.04 9.45 C 19.98 6.63 20.00 3.80 20.00 0.98 Z" />
<path fill="#ffffff" opacity="1.00" d=" M 19.92 11.18 C 20.88 9.73 23.38 11.32 22.27 12.75 C 21.32 14.35 18.74 12.66 19.92 11.18 Z" />
</g>
</svg>
